STARTFONT 2.3
FONT -FontForge-Monoton-Book-R-Normal--10-100-72-72-P-67-ISO10646-1
SIZE 10 72 72  2
FONTBOUNDINGBOX 19 16 -2 -4
COMMENT "Generated by fontforge, http://fontforge.sourceforge.net"
COMMENT "Copyright (c) 2011 by vernon adams. All rights reserved."
STARTPROPERTIES 41
FOUNDRY "FontForge"
FAMILY_NAME "Monoton"
WEIGHT_NAME "Book"
SLANT "R"
SETWIDTH_NAME "Normal"
ADD_STYLE_NAME ""
PIXEL_SIZE 10
POINT_SIZE 100
RESOLUTION_X 72
RESOLUTION_Y 72
SPACING "P"
AVERAGE_WIDTH 67
CHARSET_REGISTRY "ISO10646"
CHARSET_ENCODING "1"
FONTNAME_REGISTRY ""
CHARSET_COLLECTIONS "ISO8859-2 ISO8859-9 ISO8859-4 ISO10646-1"
BITS_PER_PIXEL 2
FONT_NAME "Monoton-Regular"
FACE_NAME "Monoton"
COPYRIGHT "Copyright (c) 2011 by vernon adams. All rights reserved."
FONT_VERSION "1.000"
FONT_ASCENT 8
FONT_DESCENT 2
UNDERLINE_POSITION 0
UNDERLINE_THICKNESS 1
X_HEIGHT 6
CAP_HEIGHT 7
DEFAULT_CHAR 1
RAW_ASCENT 799
RAW_DESCENT 200
NORM_SPACE 1
RELATIVE_WEIGHT 40
RELATIVE_SETWIDTH 50
SUPERSCRIPT_X 0
SUPERSCRIPT_Y 3
SUPERSCRIPT_SIZE 5
SUBSCRIPT_X 0
SUBSCRIPT_Y 0
SUBSCRIPT_SIZE 5
AVG_LOWERCASE_WIDTH 71
AVG_UPPERCASE_WIDTH 78
ENDPROPERTIES
CHARS 372
STARTCHAR glyph1.dup1
ENCODING 0
SWIDTH 108 0
DWIDTH 1 0
BBX 1 1 0 0
BITMAP
00
ENDCHAR
STARTCHAR uni0002
ENCODING 2
SWIDTH 108 0
DWIDTH 1 0
BBX 1 1 0 0
BITMAP
00
ENDCHAR
STARTCHAR uni0009
ENCODING 9
SWIDTH 108 0
DWIDTH 1 0
BBX 1 1 0 0
BITMAP
00
ENDCHAR
STARTCHAR uni000A
ENCODING 10
SWIDTH 108 0
DWIDTH 1 0
BBX 1 1 0 0
BITMAP
00
ENDCHAR
STARTCHAR uni000D
ENCODING 13
SWIDTH 108 0
DWIDTH 1 0
BBX 1 1 0 0
BITMAP
00
ENDCHAR
STARTCHAR space
ENCODING 32
SWIDTH 108 0
DWIDTH 1 0
BBX 1 1 0 0
BITMAP
00
ENDCHAR
STARTCHAR exclam
ENCODING 33
SWIDTH 336 0
DWIDTH 3 0
BBX 3 9 0 -1
BITMAP
68
68
68
68
68
58
54
54
54
ENDCHAR
STARTCHAR quotedbl
ENCODING 34
SWIDTH 538 0
DWIDTH 5 0
BBX 5 3 0 5
BITMAP
6580
6580
6580
ENDCHAR
STARTCHAR numbersign
ENCODING 35
SWIDTH 1014 0
DWIDTH 10 0
BBX 10 10 0 -1
BITMAP
004140
018240
169990
1A6650
054A00
060900
1A5540
699940
156800
141400
ENDCHAR
STARTCHAR dollar
ENCODING 36
SWIDTH 686 0
DWIDTH 7 0
BBX 7 10 0 -1
BITMAP
0140
2564
5690
6940
5590
1A54
0594
1654
6590
0100
ENDCHAR
STARTCHAR percent
ENCODING 37
SWIDTH 1504 0
DWIDTH 15 0
BBX 15 10 0 -1
BITMAP
05000000
25915000
5A918000
65624540
5A655560
25956AA4
05462564
00091954
00151960
00150140
ENDCHAR
STARTCHAR ampersand
ENCODING 38
SWIDTH 1029 0
DWIDTH 10 0
BBX 10 8 0 0
BITMAP
1A9640
595640
655640
5AA660
5AA660
655650
595590
1AA190
ENDCHAR
STARTCHAR quotesingle
ENCODING 39
SWIDTH 257 0
DWIDTH 3 0
BBX 3 3 0 5
BITMAP
64
64
64
ENDCHAR
STARTCHAR parenleft
ENCODING 40
SWIDTH 410 0
DWIDTH 4 0
BBX 4 10 0 -1
BITMAP
05
15
55
68
64
64
64
59
26
05
ENDCHAR
STARTCHAR parenright
ENCODING 41
SWIDTH 408 0
DWIDTH 4 0
BBX 4 10 0 -1
BITMAP
50
58
55
19
19
19
19
69
68
50
ENDCHAR
STARTCHAR asterisk
ENCODING 42
SWIDTH 664 0
DWIDTH 7 0
BBX 6 6 0 1
BITMAP
0540
2990
6690
6650
2990
0540
ENDCHAR
STARTCHAR plus
ENCODING 43
SWIDTH 601 0
DWIDTH 6 0
BBX 6 5 0 2
BITMAP
0400
1940
6990
6990
1940
ENDCHAR
STARTCHAR comma
ENCODING 44
SWIDTH 252 0
DWIDTH 3 0
BBX 2 4 0 -2
BITMAP
50
60
60
40
ENDCHAR
STARTCHAR hyphen
ENCODING 45
SWIDTH 473 0
DWIDTH 5 0
BBX 5 2 0 3
BITMAP
6A40
5500
ENDCHAR
STARTCHAR period
ENCODING 46
SWIDTH 255 0
DWIDTH 3 0
BBX 2 2 0 0
BITMAP
50
60
ENDCHAR
STARTCHAR slash
ENCODING 47
SWIDTH 447 0
DWIDTH 4 0
BBX 4 9 0 -1
BITMAP
06
0A
19
15
18
28
64
54
60
ENDCHAR
STARTCHAR zero
ENCODING 48
SWIDTH 843 0
DWIDTH 8 0
BBX 8 10 0 -1
BITMAP
0150
1964
2A99
591A
6416
6816
595A
2995
1964
0140
ENDCHAR
STARTCHAR one
ENCODING 49
SWIDTH 426 0
DWIDTH 4 0
BBX 4 8 0 0
BITMAP
6A
59
19
19
19
19
19
19
ENDCHAR
STARTCHAR two
ENCODING 50
SWIDTH 583 0
DWIDTH 6 0
BBX 6 9 0 0
BITMAP
1500
5580
6950
0250
0590
1940
2900
5540
6A80
ENDCHAR
STARTCHAR three
ENCODING 51
SWIDTH 612 0
DWIDTH 6 0
BBX 6 10 0 -1
BITMAP
1500
5540
6990
1590
1690
1950
1590
2950
5540
1500
ENDCHAR
STARTCHAR four
ENCODING 52
SWIDTH 622 0
DWIDTH 6 0
BBX 6 8 0 0
BITMAP
0680
1940
1A00
2550
5550
6AA0
5550
0050
ENDCHAR
STARTCHAR five
ENCODING 53
SWIDTH 691 0
DWIDTH 7 0
BBX 7 9 0 -1
BITMAP
6AA0
5550
5540
5590
5A54
05A4
1654
6590
0500
ENDCHAR
STARTCHAR six
ENCODING 54
SWIDTH 781 0
DWIDTH 8 0
BBX 8 10 0 -1
BITMAP
0150
1964
5690
5950
6564
6595
5965
5695
1964
0140
ENDCHAR
STARTCHAR seven
ENCODING 55
SWIDTH 631 0
DWIDTH 6 0
BBX 6 8 0 0
BITMAP
69A0
5590
0250
0590
0580
0640
0940
1640
ENDCHAR
STARTCHAR eight
ENCODING 56
SWIDTH 808 0
DWIDTH 8 0
BBX 8 10 0 -1
BITMAP
0550
2554
5695
6959
5569
5A95
6559
5695
1554
0550
ENDCHAR
STARTCHAR nine
ENCODING 57
SWIDTH 782 0
DWIDTH 8 0
BBX 8 10 0 -1
BITMAP
0540
1964
5694
6965
5665
1965
0565
1658
1964
0140
ENDCHAR
STARTCHAR colon
ENCODING 58
SWIDTH 262 0
DWIDTH 3 0
BBX 2 5 0 1
BITMAP
60
50
10
60
50
ENDCHAR
STARTCHAR semicolon
ENCODING 59
SWIDTH 261 0
DWIDTH 3 0
BBX 3 6 0 0
BITMAP
60
50
00
64
24
50
ENDCHAR
STARTCHAR less
ENCODING 60
SWIDTH 670 0
DWIDTH 7 0
BBX 7 8 0 0
BITMAP
0010
0594
59A4
6650
5550
5994
0190
0010
ENDCHAR
STARTCHAR equal
ENCODING 61
SWIDTH 473 0
DWIDTH 5 0
BBX 5 5 0 1
BITMAP
6A40
5500
1500
6A40
5500
ENDCHAR
STARTCHAR greater
ENCODING 62
SWIDTH 670 0
DWIDTH 7 0
BBX 7 8 0 0
BITMAP
5000
5900
5990
1664
1650
5990
6500
5000
ENDCHAR
STARTCHAR question
ENCODING 63
SWIDTH 693 0
DWIDTH 7 0
BBX 7 9 0 0
BITMAP
0540
6590
1A54
01A4
2A54
2990
2500
1400
2800
ENDCHAR
STARTCHAR at
ENCODING 64
SWIDTH 1076 0
DWIDTH 11 0
BBX 11 10 0 -1
BITMAP
015500
09A940
295590
559964
665954
565A54
559654
295590
19A400
015400
ENDCHAR
STARTCHAR A
ENCODING 65
SWIDTH 936 0
DWIDTH 9 0
BBX 9 8 0 0
BITMAP
026400
05A400
065800
096500
165900
195640
66A940
680580
ENDCHAR
STARTCHAR B
ENCODING 66
SWIDTH 862 0
DWIDTH 9 0
BBX 9 8 0 0
BITMAP
6AA900
555A00
695540
69A600
69A600
695640
695A00
6AA400
ENDCHAR
STARTCHAR C
ENCODING 67
SWIDTH 852 0
DWIDTH 9 0
BBX 8 10 0 -1
BITMAP
0150
0559
29A9
5914
6400
6400
5914
1995
0659
0150
ENDCHAR
STARTCHAR D
ENCODING 68
SWIDTH 886 0
DWIDTH 9 0
BBX 9 8 0 0
BITMAP
6AA400
555900
695A40
680940
680940
695640
556900
6AA400
ENDCHAR
STARTCHAR E
ENCODING 69
SWIDTH 706 0
DWIDTH 7 0
BBX 7 8 0 0
BITMAP
6AA4
6954
6800
6A40
6940
6800
6954
6AA4
ENDCHAR
STARTCHAR F
ENCODING 70
SWIDTH 683 0
DWIDTH 7 0
BBX 7 8 0 0
BITMAP
6AA4
6950
6800
6950
6AA0
6950
6800
6800
ENDCHAR
STARTCHAR G
ENCODING 71
SWIDTH 908 0
DWIDTH 9 0
BBX 9 10 0 -1
BITMAP
015000
055900
29A900
591400
640000
640640
551A40
29AA40
065A40
015000
ENDCHAR
STARTCHAR H
ENCODING 72
SWIDTH 901 0
DWIDTH 9 0
BBX 9 8 0 0
BITMAP
680A40
680A40
680A40
6AAA40
695A40
680A40
680A40
680A40
ENDCHAR
STARTCHAR I
ENCODING 73
SWIDTH 338 0
DWIDTH 3 0
BBX 3 8 0 0
BITMAP
68
68
68
68
68
68
68
68
ENDCHAR
STARTCHAR J
ENCODING 74
SWIDTH 434 0
DWIDTH 4 0
BBX 4 9 0 -1
BITMAP
1A
1A
1A
1A
1A
1A
55
64
50
ENDCHAR
STARTCHAR K
ENCODING 75
SWIDTH 815 0
DWIDTH 8 0
BBX 8 8 0 0
BITMAP
6825
6858
6894
6960
6960
6894
6859
6829
ENDCHAR
STARTCHAR L
ENCODING 76
SWIDTH 604 0
DWIDTH 6 0
BBX 6 8 0 0
BITMAP
6800
6800
6800
6800
6800
6800
6950
6A90
ENDCHAR
STARTCHAR M
ENCODING 77
SWIDTH 920 0
DWIDTH 9 0
BBX 9 8 0 0
BITMAP
640580
590A40
591640
596640
665640
696640
680640
680640
ENDCHAR
STARTCHAR N
ENCODING 78
SWIDTH 877 0
DWIDTH 9 0
BBX 9 8 0 0
BITMAP
650940
564940
5A9940
695940
696940
68A540
685540
681A40
ENDCHAR
STARTCHAR O
ENCODING 79
SWIDTH 933 0
DWIDTH 9 0
BBX 9 10 0 -1
BITMAP
015000
055900
299A40
591A40
640580
640580
591A40
199A00
065900
015000
ENDCHAR
STARTCHAR P
ENCODING 80
SWIDTH 850 0
DWIDTH 9 0
BBX 8 8 0 0
BITMAP
6AA4
555A
6956
6956
6965
69A4
6800
6800
ENDCHAR
STARTCHAR Q
ENCODING 81
SWIDTH 937 0
DWIDTH 9 0
BBX 9 10 0 -1
BITMAP
015000
055900
299A40
591A40
640580
641580
595A40
199A00
065900
015500
ENDCHAR
STARTCHAR R
ENCODING 82
SWIDTH 843 0
DWIDTH 8 0
BBX 8 8 0 0
BITMAP
6AA4
5559
6956
6956
6AA9
6968
6858
6825
ENDCHAR
STARTCHAR S
ENCODING 83
SWIDTH 682 0
DWIDTH 7 0
BBX 7 10 0 -1
BITMAP
0540
2564
5A90
6940
5590
1A54
0594
1654
6590
0500
ENDCHAR
STARTCHAR T
ENCODING 84
SWIDTH 591 0
DWIDTH 6 0
BBX 6 8 0 0
BITMAP
6A90
5650
1640
1640
1640
1640
1640
1640
ENDCHAR
STARTCHAR U
ENCODING 85
SWIDTH 905 0
DWIDTH 9 0
BBX 9 9 0 -1
BITMAP
680A40
680A40
680A40
680A40
680A40
591940
299A00
055400
015000
ENDCHAR
STARTCHAR V
ENCODING 86
SWIDTH 940 0
DWIDTH 9 0
BBX 9 8 0 0
BITMAP
580680
650940
191640
165900
0A6500
055800
059400
026400
ENDCHAR
STARTCHAR W
ENCODING 87
SWIDTH 1161 0
DWIDTH 12 0
BBX 12 8 0 0
BITMAP
686955
59A958
269964
196A94
15A664
165AA0
095690
098650
ENDCHAR
STARTCHAR X
ENCODING 88
SWIDTH 876 0
DWIDTH 9 0
BBX 9 8 0 0
BITMAP
552A00
1A5500
199400
06A000
055400
0A5800
166500
651640
ENDCHAR
STARTCHAR Y
ENCODING 89
SWIDTH 789 0
DWIDTH 8 0
BBX 8 8 0 0
BITMAP
5825
2558
1994
0960
0650
0550
0590
0590
ENDCHAR
STARTCHAR Z
ENCODING 90
SWIDTH 854 0
DWIDTH 9 0
BBX 8 8 0 0
BITMAP
6AA6
5559
556A
0655
1A90
5655
6555
6AAA
ENDCHAR
STARTCHAR bracketleft
ENCODING 91
SWIDTH 320 0
DWIDTH 3 0
BBX 3 10 0 -1
BITMAP
54
54
64
64
64
64
64
64
68
54
ENDCHAR
STARTCHAR backslash
ENCODING 92
SWIDTH 448 0
DWIDTH 4 0
BBX 4 9 0 -1
BITMAP
64
54
24
28
19
15
09
0A
06
ENDCHAR
STARTCHAR bracketright
ENCODING 93
SWIDTH 319 0
DWIDTH 3 0
BBX 3 10 0 -1
BITMAP
54
54
64
24
24
24
24
24
64
54
ENDCHAR
STARTCHAR asciicircum
ENCODING 94
SWIDTH 475 0
DWIDTH 5 0
BBX 5 4 0 3
BITMAP
1800
1900
6600
5140
ENDCHAR
STARTCHAR underscore
ENCODING 95
SWIDTH 511 0
DWIDTH 5 0
BBX 5 2 0 -2
BITMAP
6A40
5540
ENDCHAR
STARTCHAR grave
ENCODING 96
SWIDTH 472 0
DWIDTH 5 0
BBX 4 3 0 7
BITMAP
10
65
05
ENDCHAR
STARTCHAR a
ENCODING 97
SWIDTH 832 0
DWIDTH 8 0
BBX 8 8 0 0
BITMAP
0140
15A4
1565
5959
641A
595A
295A
169A
ENDCHAR
STARTCHAR b
ENCODING 98
SWIDTH 720 0
DWIDTH 7 0
BBX 7 7 0 0
BITMAP
4010
5564
5564
5554
5564
5564
5010
ENDCHAR
STARTCHAR c
ENCODING 99
SWIDTH 736 0
DWIDTH 7 0
BBX 7 9 0 -1
BITMAP
0140
1964
2694
5950
6400
5950
2554
1964
0140
ENDCHAR
STARTCHAR d
ENCODING 100
SWIDTH 833 0
DWIDTH 8 0
BBX 8 7 0 0
BITMAP
6A94
5569
6959
6816
6959
5569
6A94
ENDCHAR
STARTCHAR e
ENCODING 101
SWIDTH 666 0
DWIDTH 7 0
BBX 7 7 0 0
BITMAP
6AA4
6950
6950
6950
6950
6950
6AA4
ENDCHAR
STARTCHAR f
ENCODING 102
SWIDTH 625 0
DWIDTH 6 0
BBX 6 7 0 0
BITMAP
6AA0
6950
6940
6A90
6950
6800
6800
ENDCHAR
STARTCHAR g
ENCODING 103
SWIDTH 827 0
DWIDTH 8 0
BBX 8 9 0 -1
BITMAP
0140
1964
2694
5950
6415
596A
25AA
196A
0140
ENDCHAR
STARTCHAR h
ENCODING 104
SWIDTH 830 0
DWIDTH 8 0
BBX 8 7 0 0
BITMAP
681A
681A
695A
6AAA
695A
681A
681A
ENDCHAR
STARTCHAR i
ENCODING 105
SWIDTH 337 0
DWIDTH 3 0
BBX 3 7 0 0
BITMAP
68
68
68
68
68
68
68
ENDCHAR
STARTCHAR j
ENCODING 106
SWIDTH 393 0
DWIDTH 4 0
BBX 4 8 0 -1
BITMAP
25
25
25
25
25
65
68
50
ENDCHAR
STARTCHAR k
ENCODING 107
SWIDTH 801 0
DWIDTH 8 0
BBX 8 7 0 0
BITMAP
6865
6868
6954
69A0
6954
6868
6865
ENDCHAR
STARTCHAR l
ENCODING 108
SWIDTH 583 0
DWIDTH 6 0
BBX 6 7 0 0
BITMAP
6800
6800
6800
6800
6800
6950
6A90
ENDCHAR
STARTCHAR m
ENCODING 109
SWIDTH 1167 0
DWIDTH 12 0
BBX 12 8 0 0
BITMAP
014140
196964
566A98
685955
685855
685855
685855
685855
ENDCHAR
STARTCHAR n
ENCODING 110
SWIDTH 787 0
DWIDTH 8 0
BBX 8 7 0 0
BITMAP
6515
5655
5A55
5965
65A5
6555
6469
ENDCHAR
STARTCHAR o
ENCODING 111
SWIDTH 833 0
DWIDTH 8 0
BBX 8 9 0 -1
BITMAP
0140
1964
2695
5959
6416
5959
2595
1964
0140
ENDCHAR
STARTCHAR p
ENCODING 112
SWIDTH 781 0
DWIDTH 8 0
BBX 8 7 0 0
BITMAP
6A94
5568
6965
6A95
6958
6950
6800
ENDCHAR
STARTCHAR q
ENCODING 113
SWIDTH 788 0
DWIDTH 8 0
BBX 8 8 0 -1
BITMAP
16A9
5955
6965
6425
56A5
1965
0565
0025
ENDCHAR
STARTCHAR r
ENCODING 114
SWIDTH 831 0
DWIDTH 8 0
BBX 8 7 0 0
BITMAP
6AA4
5559
6956
6AA9
6959
69A4
6858
ENDCHAR
STARTCHAR s
ENCODING 115
SWIDTH 683 0
DWIDTH 7 0
BBX 7 8 0 0
BITMAP
0100
1A94
6550
6540
6560
0554
1554
5A90
ENDCHAR
STARTCHAR t
ENCODING 116
SWIDTH 588 0
DWIDTH 6 0
BBX 6 7 0 0
BITMAP
6A90
5550
1600
1600
1600
1600
1600
ENDCHAR
STARTCHAR u
ENCODING 117
SWIDTH 795 0
DWIDTH 8 0
BBX 8 8 0 -1
BITMAP
6825
6825
6825
6825
5965
1968
1964
0140
ENDCHAR
STARTCHAR v
ENCODING 118
SWIDTH 855 0
DWIDTH 9 0
BBX 9 7 0 0
BITMAP
581640
651900
195500
166800
099400
066400
069000
ENDCHAR
STARTCHAR w
ENCODING 119
SWIDTH 1129 0
DWIDTH 11 0
BBX 11 7 0 0
BITMAP
686868
686868
686868
686868
596964
555954
1AAA90
ENDCHAR
STARTCHAR x
ENCODING 120
SWIDTH 790 0
DWIDTH 8 0
BBX 8 7 0 0
BITMAP
5555
1A94
16A0
0550
1A60
1A94
5555
ENDCHAR
STARTCHAR y
ENCODING 121
SWIDTH 733 0
DWIDTH 7 0
BBX 7 7 0 0
BITMAP
6858
2594
1560
0650
0580
0580
0580
ENDCHAR
STARTCHAR z
ENCODING 122
SWIDTH 714 0
DWIDTH 7 0
BBX 7 7 0 0
BITMAP
6AA4
5564
0550
0A80
1540
6954
6AA8
ENDCHAR
STARTCHAR braceleft
ENCODING 123
SWIDTH 396 0
DWIDTH 4 0
BBX 4 11 0 -2
BITMAP
05
15
25
24
24
54
54
24
24
25
19
ENDCHAR
STARTCHAR bar
ENCODING 124
SWIDTH 266 0
DWIDTH 3 0
BBX 3 9 0 -1
BITMAP
64
64
64
64
64
64
64
64
64
ENDCHAR
STARTCHAR braceright
ENCODING 125
SWIDTH 396 0
DWIDTH 4 0
BBX 4 11 0 -2
BITMAP
50
54
58
18
19
15
19
18
18
58
64
ENDCHAR
STARTCHAR asciitilde
ENCODING 126
SWIDTH 665 0
DWIDTH 7 0
BBX 7 3 0 5
BITMAP
1540
5554
0550
ENDCHAR
STARTCHAR uni00A0
ENCODING 160
SWIDTH 108 0
DWIDTH 1 0
BBX 1 1 0 0
BITMAP
00
ENDCHAR
STARTCHAR exclamdown
ENCODING 161
SWIDTH 336 0
DWIDTH 3 0
BBX 3 9 0 -1
BITMAP
68
68
68
68
68
58
54
54
54
ENDCHAR
STARTCHAR cent
ENCODING 162
SWIDTH 708 0
DWIDTH 7 0
BBX 7 10 0 -1
BITMAP
0140
0550
1694
5990
6400
6840
6690
1964
0540
0140
ENDCHAR
STARTCHAR sterling
ENCODING 163
SWIDTH 689 0
DWIDTH 7 0
BBX 7 9 0 0
BITMAP
0540
2564
5690
6800
6950
6A90
6800
6950
6A90
ENDCHAR
STARTCHAR currency
ENCODING 164
SWIDTH 715 0
DWIDTH 7 0
BBX 7 8 0 0
BITMAP
1010
5564
2990
2420
2020
1460
6694
1424
ENDCHAR
STARTCHAR yen
ENCODING 165
SWIDTH 796 0
DWIDTH 8 0
BBX 8 8 0 0
BITMAP
5825
2558
19A4
0960
0690
1554
1594
0590
ENDCHAR
STARTCHAR brokenbar
ENCODING 166
SWIDTH 263 0
DWIDTH 3 0
BBX 3 9 0 -1
BITMAP
64
64
64
50
00
50
64
64
64
ENDCHAR
STARTCHAR section
ENCODING 167
SWIDTH 108 0
DWIDTH 1 0
BBX 1 1 0 0
BITMAP
00
ENDCHAR
STARTCHAR dieresis
ENCODING 168
SWIDTH 556 0
DWIDTH 6 0
BBX 5 2 0 7
BITMAP
1040
5140
ENDCHAR
STARTCHAR copyright
ENCODING 169
SWIDTH 869 0
DWIDTH 9 0
BBX 9 9 0 0
BITMAP
015000
191800
266600
480140
940040
880140
556600
144900
015000
ENDCHAR
STARTCHAR ordfeminine
ENCODING 170
SWIDTH 833 0
DWIDTH 8 0
BBX 8 8 0 0
BITMAP
0040
16A4
1965
5959
6416
5956
2956
16A6
ENDCHAR
STARTCHAR guillemotleft
ENCODING 171
SWIDTH 911 0
DWIDTH 9 0
BBX 9 5 0 1
BITMAP
050540
661640
552500
595940
010140
ENDCHAR
STARTCHAR logicalnot
ENCODING 172
SWIDTH 718 0
DWIDTH 7 0
BBX 7 4 0 2
BITMAP
1550
5564
5564
0024
ENDCHAR
STARTCHAR registered
ENCODING 174
SWIDTH 869 0
DWIDTH 9 0
BBX 9 9 0 0
BITMAP
015000
191800
229200
451540
866040
855140
552200
140900
015000
ENDCHAR
STARTCHAR degree
ENCODING 176
SWIDTH 330 0
DWIDTH 3 0
BBX 3 4 0 7
BITMAP
10
58
54
10
ENDCHAR
STARTCHAR plusminus
ENCODING 177
SWIDTH 598 0
DWIDTH 6 0
BBX 6 6 0 0
BITMAP
1940
6990
6990
1940
1540
1540
ENDCHAR
STARTCHAR uni00B2
ENCODING 178
SWIDTH 435 0
DWIDTH 4 0
BBX 4 7 0 1
BITMAP
69
02
05
14
60
55
55
ENDCHAR
STARTCHAR uni00B3
ENCODING 179
SWIDTH 515 0
DWIDTH 5 0
BBX 5 7 0 1
BITMAP
6900
5540
1540
1540
1640
6940
5500
ENDCHAR
STARTCHAR acute
ENCODING 180
SWIDTH 472 0
DWIDTH 5 0
BBX 3 3 1 7
BITMAP
04
64
50
ENDCHAR
STARTCHAR uni00B5
ENCODING 181
SWIDTH 802 0
DWIDTH 8 0
BBX 8 8 0 -1
BITMAP
5829
5829
5829
5829
5865
5968
5964
5940
ENDCHAR
STARTCHAR paragraph
ENCODING 182
SWIDTH 676 0
DWIDTH 7 0
BBX 7 8 0 -1
BITMAP
1AA4
5954
6594
5A94
2594
0594
0094
0094
ENDCHAR
STARTCHAR periodcentered
ENCODING 183
SWIDTH 260 0
DWIDTH 3 0
BBX 2 2 0 4
BITMAP
50
60
ENDCHAR
STARTCHAR cedilla
ENCODING 184
SWIDTH 321 0
DWIDTH 3 0
BBX 3 4 0 -4
BITMAP
14
64
54
14
ENDCHAR
STARTCHAR uni00B9
ENCODING 185
SWIDTH 359 0
DWIDTH 4 0
BBX 3 6 0 2
BITMAP
68
18
18
18
18
14
ENDCHAR
STARTCHAR ordmasculine
ENCODING 186
SWIDTH 835 0
DWIDTH 8 0
BBX 8 9 0 -1
BITMAP
0140
1964
2695
5919
6416
5959
2595
1564
0140
ENDCHAR
STARTCHAR guillemotright
ENCODING 187
SWIDTH 912 0
DWIDTH 9 0
BBX 9 5 0 1
BITMAP
541400
662640
161540
595940
501400
ENDCHAR
STARTCHAR onequarter
ENCODING 188
SWIDTH 1236 0
DWIDTH 12 0
BBX 12 9 0 -1
BITMAP
681500
181814
182454
185464
185595
146155
0091AA
015005
015000
ENDCHAR
STARTCHAR onehalf
ENCODING 189
SWIDTH 1154 0
DWIDTH 12 0
BBX 11 9 0 -1
BITMAP
681500
181850
182458
185408
185414
146050
009040
0151A8
015000
ENDCHAR
STARTCHAR threequarters
ENCODING 190
SWIDTH 1345 0
DWIDTH 13 0
BBX 13 9 0 -1
BITMAP
69024000
55454500
15465900
154A1900
16496540
69555540
55196A80
00280140
00240000
ENDCHAR
STARTCHAR questiondown
ENCODING 191
SWIDTH 693 0
DWIDTH 7 0
BBX 7 9 0 0
BITMAP
0540
6590
1A54
01A4
2A54
2990
2500
1400
2800
ENDCHAR
STARTCHAR Agrave
ENCODING 192
SWIDTH 936 0
DWIDTH 9 0
BBX 9 12 0 0
BITMAP
040000
154000
014000
000000
026400
05A400
065800
096500
165900
195640
66A940
680580
ENDCHAR
STARTCHAR Aacute
ENCODING 193
SWIDTH 936 0
DWIDTH 9 0
BBX 9 12 0 0
BITMAP
000400
005900
005000
000000
026400
05A400
065800
096500
165900
195640
66A940
680580
ENDCHAR
STARTCHAR Acircumflex
ENCODING 194
SWIDTH 936 0
DWIDTH 9 0
BBX 9 11 0 0
BITMAP
009000
015000
001000
026400
05A400
065800
096500
165900
195640
66A940
680580
ENDCHAR
STARTCHAR Atilde
ENCODING 195
SWIDTH 936 0
DWIDTH 9 0
BBX 9 11 0 0
BITMAP
055000
055500
015400
026400
05A400
065800
096500
165900
195640
66A940
680580
ENDCHAR
STARTCHAR Adieresis
ENCODING 196
SWIDTH 936 0
DWIDTH 9 0
BBX 9 11 0 0
BITMAP
010400
051400
000000
026400
05A400
065800
096500
165900
195640
66A940
680580
ENDCHAR
STARTCHAR Aring
ENCODING 197
SWIDTH 936 0
DWIDTH 9 0
BBX 9 12 0 0
BITMAP
004000
016000
016000
004000
026400
05A400
065800
096500
165900
195640
66A940
680580
ENDCHAR
STARTCHAR AE
ENCODING 198
SWIDTH 1198 0
DWIDTH 12 0
BBX 12 8 0 0
BITMAP
025AA9
05A955
065800
0966A8
165A54
195640
66A995
5806A9
ENDCHAR
STARTCHAR Ccedilla
ENCODING 199
SWIDTH 852 0
DWIDTH 9 0
BBX 8 13 0 -4
BITMAP
0150
0559
29A9
5914
6400
6400
5914
1995
0659
0190
0280
0240
0140
ENDCHAR
STARTCHAR Egrave
ENCODING 200
SWIDTH 706 0
DWIDTH 7 0
BBX 7 12 0 0
BITMAP
1000
6500
0500
0000
6AA4
6954
6800
6A40
6940
6800
6954
6AA4
ENDCHAR
STARTCHAR Eacute
ENCODING 201
SWIDTH 706 0
DWIDTH 7 0
BBX 7 12 0 0
BITMAP
0010
0164
0140
0000
6AA4
6954
6800
6A40
6940
6800
6954
6AA4
ENDCHAR
STARTCHAR Ecircumflex
ENCODING 202
SWIDTH 706 0
DWIDTH 7 0
BBX 7 11 0 0
BITMAP
0640
0640
0040
6AA4
6954
6800
6A40
6940
6800
6954
6AA4
ENDCHAR
STARTCHAR Edieresis
ENCODING 203
SWIDTH 706 0
DWIDTH 7 0
BBX 7 11 0 0
BITMAP
1450
1450
0000
6AA4
6954
6800
6A40
6940
6800
6954
6AA4
ENDCHAR
STARTCHAR Igrave
ENCODING 204
SWIDTH 338 0
DWIDTH 3 0
BBX 5 12 -2 0
BITMAP
1000
5500
0500
0000
0680
0680
0680
0680
0680
0680
0680
0680
ENDCHAR
STARTCHAR Iacute
ENCODING 205
SWIDTH 338 0
DWIDTH 3 0
BBX 5 12 0 0
BITMAP
0100
1640
1400
0000
6800
6800
6800
6800
6800
6800
6800
6800
ENDCHAR
STARTCHAR Icircumflex
ENCODING 206
SWIDTH 338 0
DWIDTH 3 0
BBX 3 11 0 0
BITMAP
24
54
04
68
68
68
68
68
68
68
68
ENDCHAR
STARTCHAR Idieresis
ENCODING 207
SWIDTH 338 0
DWIDTH 3 0
BBX 5 11 -1 0
BITMAP
1040
5140
0000
1A00
1A00
1A00
1A00
1A00
1A00
1A00
1A00
ENDCHAR
STARTCHAR Eth
ENCODING 208
SWIDTH 905 0
DWIDTH 9 0
BBX 9 8 0 0
BITMAP
6AA400
555A00
595940
6A0A40
550A40
595540
556A00
6AA400
ENDCHAR
STARTCHAR Ntilde
ENCODING 209
SWIDTH 877 0
DWIDTH 9 0
BBX 9 11 0 0
BITMAP
055000
155500
155400
650940
564940
5A9940
695940
696940
68A540
685540
681A40
ENDCHAR
STARTCHAR Ograve
ENCODING 210
SWIDTH 933 0
DWIDTH 9 0
BBX 9 13 0 -1
BITMAP
040000
154000
014000
015000
055900
299A40
591A40
640580
640580
591A40
199A00
065900
015000
ENDCHAR
STARTCHAR Oacute
ENCODING 211
SWIDTH 933 0
DWIDTH 9 0
BBX 9 13 0 -1
BITMAP
000400
005900
005000
015000
055900
299A40
591A40
640580
640580
591A40
199A00
065900
015000
ENDCHAR
STARTCHAR Ocircumflex
ENCODING 212
SWIDTH 933 0
DWIDTH 9 0
BBX 9 12 0 -1
BITMAP
009000
015000
000000
055900
299A40
591A40
640580
640580
591A40
199A00
065900
015000
ENDCHAR
STARTCHAR Otilde
ENCODING 213
SWIDTH 933 0
DWIDTH 9 0
BBX 9 12 0 -1
BITMAP
055000
055500
01A400
055900
299A40
591A40
640580
640580
591A40
199A00
065900
015000
ENDCHAR
STARTCHAR Odieresis
ENCODING 214
SWIDTH 933 0
DWIDTH 9 0
BBX 9 12 0 -1
BITMAP
051400
051400
015000
055900
299A40
591A40
640580
640580
591A40
199A00
065900
015000
ENDCHAR
STARTCHAR multiply
ENCODING 215
SWIDTH 790 0
DWIDTH 8 0
BBX 8 7 0 0
BITMAP
5555
1A94
16A0
0550
1A60
1A94
5555
ENDCHAR
STARTCHAR Oslash
ENCODING 216
SWIDTH 938 0
DWIDTH 9 0
BBX 9 12 0 -2
BITMAP
000400
015500
055900
299A40
591640
640580
640580
591640
199A00
165900
155000
040000
ENDCHAR
STARTCHAR Ugrave
ENCODING 217
SWIDTH 905 0
DWIDTH 9 0
BBX 9 13 0 -1
BITMAP
040000
194000
014000
000000
680A40
680A40
680A40
680A40
680A40
591940
299A00
055400
015000
ENDCHAR
STARTCHAR Uacute
ENCODING 218
SWIDTH 905 0
DWIDTH 9 0
BBX 9 13 0 -1
BITMAP
000400
005900
005000
000000
680A40
680A40
680A40
680A40
680A40
591940
299A00
055400
015000
ENDCHAR
STARTCHAR Ucircumflex
ENCODING 219
SWIDTH 905 0
DWIDTH 9 0
BBX 9 12 0 -1
BITMAP
019000
019000
015000
680A40
680A40
680A40
680A40
680A40
591940
299A00
055400
015000
ENDCHAR
STARTCHAR Udieresis
ENCODING 220
SWIDTH 905 0
DWIDTH 9 0
BBX 9 12 0 -1
BITMAP
051400
051400
000000
680A40
680A40
680A40
680A40
680A40
591940
299A00
055400
015000
ENDCHAR
STARTCHAR Yacute
ENCODING 221
SWIDTH 789 0
DWIDTH 8 0
BBX 8 12 0 0
BITMAP
0004
0064
0140
0000
5825
2558
1994
0960
0650
0550
0590
0590
ENDCHAR
STARTCHAR Thorn
ENCODING 222
SWIDTH 798 0
DWIDTH 8 0
BBX 8 10 0 -1
BITMAP
1400
6950
6964
6AA9
6829
6825
6A99
6964
6940
5400
ENDCHAR
STARTCHAR germandbls
ENCODING 223
SWIDTH 826 0
DWIDTH 8 0
BBX 8 10 0 -1
BITMAP
0550
2558
56A9
6959
6965
6959
695A
6965
6AA4
5400
ENDCHAR
STARTCHAR agrave
ENCODING 224
SWIDTH 832 0
DWIDTH 8 0
BBX 8 11 0 0
BITMAP
1000
1900
0140
0140
15A4
1565
5959
641A
595A
295A
169A
ENDCHAR
STARTCHAR aacute
ENCODING 225
SWIDTH 832 0
DWIDTH 8 0
BBX 8 11 0 0
BITMAP
0004
0064
0150
0140
15A4
1565
5959
641A
595A
295A
169A
ENDCHAR
STARTCHAR acircumflex
ENCODING 226
SWIDTH 832 0
DWIDTH 8 0
BBX 8 10 0 0
BITMAP
0240
0190
0000
15A4
1565
5959
641A
595A
295A
169A
ENDCHAR
STARTCHAR atilde
ENCODING 227
SWIDTH 832 0
DWIDTH 8 0
BBX 8 10 0 0
BITMAP
0544
1554
1290
15A4
1565
5959
641A
595A
295A
169A
ENDCHAR
STARTCHAR adieresis
ENCODING 228
SWIDTH 832 0
DWIDTH 8 0
BBX 8 9 0 0
BITMAP
1554
0140
15A4
1565
5959
641A
595A
295A
169A
ENDCHAR
STARTCHAR aring
ENCODING 229
SWIDTH 832 0
DWIDTH 8 0
BBX 8 11 0 0
BITMAP
0040
0150
0150
0140
15A4
1565
5959
641A
595A
295A
169A
ENDCHAR
STARTCHAR ae
ENCODING 230
SWIDTH 1166 0
DWIDTH 12 0
BBX 12 8 0 0
BITMAP
014000
15A6A9
156654
595A54
641A54
595A54
295A54
169AA9
ENDCHAR
STARTCHAR ccedilla
ENCODING 231
SWIDTH 736 0
DWIDTH 7 0
BBX 7 12 0 -4
BITMAP
0140
1964
2694
5950
6400
5950
2554
1964
0140
0640
0540
0540
ENDCHAR
STARTCHAR egrave
ENCODING 232
SWIDTH 666 0
DWIDTH 7 0
BBX 7 11 0 0
BITMAP
1000
6500
0500
0000
6AA4
6950
6950
6950
6950
6950
6AA4
ENDCHAR
STARTCHAR eacute
ENCODING 233
SWIDTH 666 0
DWIDTH 7 0
BBX 7 11 0 0
BITMAP
0010
0154
0140
0000
6AA4
6950
6950
6950
6950
6950
6AA4
ENDCHAR
STARTCHAR ecircumflex
ENCODING 234
SWIDTH 666 0
DWIDTH 7 0
BBX 7 10 0 0
BITMAP
0600
0540
0400
6AA4
6950
6950
6950
6950
6950
6AA4
ENDCHAR
STARTCHAR edieresis
ENCODING 235
SWIDTH 666 0
DWIDTH 7 0
BBX 7 10 0 0
BITMAP
1450
1450
0000
6AA4
6950
6950
6950
6950
6950
6AA4
ENDCHAR
STARTCHAR igrave
ENCODING 236
SWIDTH 337 0
DWIDTH 3 0
BBX 5 11 -2 0
BITMAP
1000
5500
0500
0000
0680
0680
0680
0680
0680
0680
0680
ENDCHAR
STARTCHAR iacute
ENCODING 237
SWIDTH 337 0
DWIDTH 3 0
BBX 5 11 0 0
BITMAP
0100
1640
1400
0000
6800
6800
6800
6800
6800
6800
6800
ENDCHAR
STARTCHAR icircumflex
ENCODING 238
SWIDTH 337 0
DWIDTH 3 0
BBX 3 10 0 0
BITMAP
24
54
14
68
68
68
68
68
68
68
ENDCHAR
STARTCHAR idieresis
ENCODING 239
SWIDTH 337 0
DWIDTH 3 0
BBX 5 10 -1 0
BITMAP
1040
5140
0000
1A00
1A00
1A00
1A00
1A00
1A00
1A00
ENDCHAR
STARTCHAR eth
ENCODING 240
SWIDTH 783 0
DWIDTH 8 0
BBX 8 10 0 -1
BITMAP
0540
1564
06A8
0065
1A65
5565
6565
5664
1964
0140
ENDCHAR
STARTCHAR ntilde
ENCODING 241
SWIDTH 787 0
DWIDTH 8 0
BBX 8 10 0 0
BITMAP
0544
2554
1150
6515
5655
5A55
5965
65A5
6555
6469
ENDCHAR
STARTCHAR ograve
ENCODING 242
SWIDTH 833 0
DWIDTH 8 0
BBX 8 11 0 -1
BITMAP
1900
0140
0140
1964
2695
5959
6416
5959
2595
1964
0140
ENDCHAR
STARTCHAR oacute
ENCODING 243
SWIDTH 833 0
DWIDTH 8 0
BBX 8 12 0 -1
BITMAP
0004
0064
0150
0140
1964
2695
5959
6416
5959
2595
1964
0140
ENDCHAR
STARTCHAR ocircumflex
ENCODING 244
SWIDTH 833 0
DWIDTH 8 0
BBX 8 11 0 -1
BITMAP
0140
0150
0040
1964
2695
5959
6416
5959
2595
1964
0140
ENDCHAR
STARTCHAR otilde
ENCODING 245
SWIDTH 833 0
DWIDTH 8 0
BBX 8 11 0 -1
BITMAP
0544
1558
1690
1964
2695
5959
6416
5959
2595
1964
0140
ENDCHAR
STARTCHAR odieresis
ENCODING 246
SWIDTH 833 0
DWIDTH 8 0
BBX 8 11 0 -1
BITMAP
0410
0514
0140
1964
2695
5959
6416
5959
2595
1964
0140
ENDCHAR
STARTCHAR divide
ENCODING 247
SWIDTH 260 0
DWIDTH 3 0
BBX 3 6 0 0
BITMAP
64
50
50
54
64
50
ENDCHAR
STARTCHAR oslash
ENCODING 248
SWIDTH 832 0
DWIDTH 8 0
BBX 8 9 0 -1
BITMAP
0154
1968
2A95
5959
6416
5959
2555
1964
1540
ENDCHAR
STARTCHAR ugrave
ENCODING 249
SWIDTH 795 0
DWIDTH 8 0
BBX 8 12 0 -1
BITMAP
1000
1900
0540
0000
6825
6825
6825
6825
5965
1968
1964
0140
ENDCHAR
STARTCHAR uacute
ENCODING 250
SWIDTH 795 0
DWIDTH 8 0
BBX 8 12 0 -1
BITMAP
0004
0064
0140
0000
6825
6825
6825
6825
5965
1968
1964
0140
ENDCHAR
STARTCHAR ucircumflex
ENCODING 251
SWIDTH 795 0
DWIDTH 8 0
BBX 8 11 0 -1
BITMAP
0240
0580
0140
6825
6825
6825
6825
5965
1968
1964
0140
ENDCHAR
STARTCHAR udieresis
ENCODING 252
SWIDTH 795 0
DWIDTH 8 0
BBX 8 11 0 -1
BITMAP
0410
1554
0000
6825
6825
6825
6825
5965
1968
1964
0140
ENDCHAR
STARTCHAR yacute
ENCODING 253
SWIDTH 733 0
DWIDTH 7 0
BBX 7 11 0 0
BITMAP
0010
0164
0140
0000
6858
2594
1560
0650
0580
0580
0580
ENDCHAR
STARTCHAR thorn
ENCODING 254
SWIDTH 833 0
DWIDTH 8 0
BBX 8 9 0 -1
BITMAP
6800
6800
6AA4
6969
6956
6AA9
6959
6950
6800
ENDCHAR
STARTCHAR ydieresis
ENCODING 255
SWIDTH 733 0
DWIDTH 7 0
BBX 7 10 0 0
BITMAP
0410
1450
0000
6858
2594
1560
0650
0580
0580
0580
ENDCHAR
STARTCHAR Amacron
ENCODING 256
SWIDTH 936 0
DWIDTH 9 0
BBX 9 8 0 0
BITMAP
026400
05A400
065800
096500
165900
195640
66A940
680580
ENDCHAR
STARTCHAR amacron
ENCODING 257
SWIDTH 832 0
DWIDTH 8 0
BBX 8 8 0 0
BITMAP
0140
15A4
1565
5959
641A
595A
295A
169A
ENDCHAR
STARTCHAR Abreve
ENCODING 258
SWIDTH 936 0
DWIDTH 9 0
BBX 9 10 0 0
BITMAP
016000
004000
026400
05A400
065800
096500
165900
195640
66A940
680580
ENDCHAR
STARTCHAR abreve
ENCODING 259
SWIDTH 832 0
DWIDTH 8 0
BBX 8 9 0 0
BITMAP
0550
0140
15A4
1565
5959
641A
595A
295A
169A
ENDCHAR
STARTCHAR Aogonek
ENCODING 260
SWIDTH 937 0
DWIDTH 9 0
BBX 9 11 0 -3
BITMAP
025400
05A400
059800
0A6500
165A00
195540
66AA40
594580
024000
024000
024000
ENDCHAR
STARTCHAR aogonek
ENCODING 261
SWIDTH 832 0
DWIDTH 8 0
BBX 8 11 0 -3
BITMAP
0140
15A4
1565
5959
641A
595A
295A
1B9A
0600
0600
0600
ENDCHAR
STARTCHAR Cacute
ENCODING 262
SWIDTH 852 0
DWIDTH 9 0
BBX 8 13 0 -1
BITMAP
0004
0059
0050
0150
0559
29A9
5914
6400
6400
5914
1995
0659
0150
ENDCHAR
STARTCHAR cacute
ENCODING 263
SWIDTH 736 0
DWIDTH 7 0
BBX 7 12 0 -1
BITMAP
0004
0064
0150
0140
1964
2694
5950
6400
5950
2554
1964
0140
ENDCHAR
STARTCHAR Cdotaccent
ENCODING 266
SWIDTH 852 0
DWIDTH 9 0
BBX 8 12 0 -1
BITMAP
0090
0050
0150
0559
29A9
5914
6400
6400
5914
1995
0659
0150
ENDCHAR
STARTCHAR cdotaccent
ENCODING 267
SWIDTH 736 0
DWIDTH 7 0
BBX 7 11 0 -1
BITMAP
0180
0140
0140
1964
2694
5950
6400
5950
2554
1964
0140
ENDCHAR
STARTCHAR Ccaron
ENCODING 268
SWIDTH 852 0
DWIDTH 9 0
BBX 8 12 0 -1
BITMAP
0160
0150
0190
0559
29A9
5914
6400
6400
5914
1995
0659
0150
ENDCHAR
STARTCHAR ccaron
ENCODING 269
SWIDTH 736 0
DWIDTH 7 0
BBX 7 11 0 -1
BITMAP
0550
0180
0280
1964
2694
5950
6400
5950
2554
1964
0140
ENDCHAR
STARTCHAR Dcaron
ENCODING 270
SWIDTH 886 0
DWIDTH 9 0
BBX 9 11 0 0
BITMAP
015000
015000
014000
6AA400
555900
695A40
680940
680940
695640
556900
6AA400
ENDCHAR
STARTCHAR dcaron
ENCODING 271
SWIDTH 1084 0
DWIDTH 11 0
BBX 11 8 0 0
BITMAP
000054
6A9414
556914
695910
681600
695900
556900
6A9400
ENDCHAR
STARTCHAR Dcroat
ENCODING 272
SWIDTH 888 0
DWIDTH 9 0
BBX 10 8 -1 0
BITMAP
1AA900
155640
1A5690
5A9250
1A4250
1A5590
155A40
1AA900
ENDCHAR
STARTCHAR dcroat
ENCODING 273
SWIDTH 833 0
DWIDTH 8 0
BBX 8 7 0 0
BITMAP
6A94
5569
6959
6816
6959
5569
6A94
ENDCHAR
STARTCHAR Emacron
ENCODING 274
SWIDTH 706 0
DWIDTH 7 0
BBX 7 8 0 0
BITMAP
6AA4
6954
6800
6A40
6940
6800
6954
6AA4
ENDCHAR
STARTCHAR emacron
ENCODING 275
SWIDTH 666 0
DWIDTH 7 0
BBX 7 7 0 0
BITMAP
6AA4
6950
6950
6950
6950
6950
6AA4
ENDCHAR
STARTCHAR Ebreve
ENCODING 276
SWIDTH 706 0
DWIDTH 7 0
BBX 7 10 0 0
BITMAP
0580
0100
6AA4
6954
6800
6A40
6940
6800
6954
6AA4
ENDCHAR
STARTCHAR ebreve
ENCODING 277
SWIDTH 666 0
DWIDTH 7 0
BBX 7 9 0 0
BITMAP
0940
0000
6AA4
6950
6950
6950
6950
6950
6AA4
ENDCHAR
STARTCHAR Edotaccent
ENCODING 278
SWIDTH 706 0
DWIDTH 7 0
BBX 7 11 0 0
BITMAP
0100
0640
0100
6AA4
6954
6800
6A40
6940
6800
6954
6AA4
ENDCHAR
STARTCHAR edotaccent
ENCODING 279
SWIDTH 666 0
DWIDTH 7 0
BBX 7 10 0 0
BITMAP
0500
0600
0000
6AA4
6950
6950
6950
6950
6950
6AA4
ENDCHAR
STARTCHAR Eogonek
ENCODING 280
SWIDTH 706 0
DWIDTH 7 0
BBX 7 11 0 -3
BITMAP
6AA4
6954
6800
6A40
6940
6800
6954
6AA8
0024
0024
0014
ENDCHAR
STARTCHAR eogonek
ENCODING 281
SWIDTH 666 0
DWIDTH 7 0
BBX 7 10 0 -3
BITMAP
6AA4
6950
6950
6950
6950
6950
6AB4
0050
0050
0054
ENDCHAR
STARTCHAR Ecaron
ENCODING 282
SWIDTH 706 0
DWIDTH 7 0
BBX 7 11 0 0
BITMAP
0540
0540
0140
6AA4
6954
6800
6A40
6940
6800
6954
6AA4
ENDCHAR
STARTCHAR ecaron
ENCODING 283
SWIDTH 666 0
DWIDTH 7 0
BBX 7 10 0 0
BITMAP
0940
0540
0100
6AA4
6950
6950
6950
6950
6950
6AA4
ENDCHAR
STARTCHAR Gbreve
ENCODING 286
SWIDTH 908 0
DWIDTH 9 0
BBX 9 11 0 -1
BITMAP
016000
015000
055900
29A900
591400
640000
640640
551A40
29AA40
065A40
015000
ENDCHAR
STARTCHAR gbreve
ENCODING 287
SWIDTH 827 0
DWIDTH 8 0
BBX 8 10 0 -1
BITMAP
0150
0140
1964
2694
5950
6415
596A
25AA
196A
0140
ENDCHAR
STARTCHAR Gdotaccent
ENCODING 288
SWIDTH 908 0
DWIDTH 9 0
BBX 9 12 0 -1
BITMAP
009000
005000
015000
055900
29A900
591400
640000
640640
551A40
29AA40
065A40
015000
ENDCHAR
STARTCHAR gdotaccent
ENCODING 289
SWIDTH 827 0
DWIDTH 8 0
BBX 8 11 0 -1
BITMAP
0180
0140
0140
1964
2694
5950
6415
596A
25AA
196A
0140
ENDCHAR
STARTCHAR Gcommaaccent
ENCODING 290
SWIDTH 908 0
DWIDTH 9 0
BBX 9 13 0 -4
BITMAP
015000
055900
29A900
591400
640000
640640
551A40
29AA40
065A40
015000
015000
005000
004000
ENDCHAR
STARTCHAR gcommaaccent
ENCODING 291
SWIDTH 827 0
DWIDTH 8 0
BBX 8 9 0 -1
BITMAP
0140
1964
2694
5950
6415
596A
25AA
196A
0140
ENDCHAR
STARTCHAR Hcircumflex
ENCODING 292
SWIDTH 901 0
DWIDTH 9 0
BBX 9 11 0 0
BITMAP
019000
019000
015000
680A40
680A40
680A40
6AAA40
695A40
680A40
680A40
680A40
ENDCHAR
STARTCHAR hcircumflex
ENCODING 293
SWIDTH 830 0
DWIDTH 8 0
BBX 8 10 0 0
BITMAP
0140
0150
0140
681A
681A
695A
6AAA
695A
681A
681A
ENDCHAR
STARTCHAR Hbar
ENCODING 294
SWIDTH 901 0
DWIDTH 9 0
BBX 9 8 0 0
BITMAP
680A40
680A40
680A40
6AAA40
695A40
680A40
680A40
680A40
ENDCHAR
STARTCHAR hbar
ENCODING 295
SWIDTH 830 0
DWIDTH 8 0
BBX 8 7 0 0
BITMAP
6959
6959
6959
6AA9
6959
6819
6819
ENDCHAR
STARTCHAR Itilde
ENCODING 296
SWIDTH 338 0
DWIDTH 3 0
BBX 6 11 -1 0
BITMAP
5500
5550
1540
1A00
1A00
1A00
1A00
1A00
1A00
1A00
1A00
ENDCHAR
STARTCHAR itilde
ENCODING 297
SWIDTH 337 0
DWIDTH 3 0
BBX 6 10 -1 0
BITMAP
5500
5550
1540
1A00
1A00
1A00
1A00
1A00
1A00
1A00
ENDCHAR
STARTCHAR Imacron
ENCODING 298
SWIDTH 338 0
DWIDTH 3 0
BBX 3 8 0 0
BITMAP
68
68
68
68
68
68
68
68
ENDCHAR
STARTCHAR imacron
ENCODING 299
SWIDTH 337 0
DWIDTH 3 0
BBX 3 7 0 0
BITMAP
68
68
68
68
68
68
68
ENDCHAR
STARTCHAR Ibreve
ENCODING 300
SWIDTH 338 0
DWIDTH 3 0
BBX 3 10 0 0
BITMAP
58
10
68
68
68
68
68
68
68
68
ENDCHAR
STARTCHAR ibreve
ENCODING 301
SWIDTH 337 0
DWIDTH 3 0
BBX 3 9 0 0
BITMAP
58
00
68
68
68
68
68
68
68
ENDCHAR
STARTCHAR Iogonek
ENCODING 302
SWIDTH 338 0
DWIDTH 3 0
BBX 3 11 0 -3
BITMAP
68
68
68
68
68
68
68
6C
14
14
14
ENDCHAR
STARTCHAR iogonek
ENCODING 303
SWIDTH 337 0
DWIDTH 3 0
BBX 3 10 0 -3
BITMAP
68
68
68
68
68
68
6C
14
14
14
ENDCHAR
STARTCHAR Idotaccent
ENCODING 304
SWIDTH 338 0
DWIDTH 3 0
BBX 3 11 0 0
BITMAP
24
14
00
68
68
68
68
68
68
68
68
ENDCHAR
STARTCHAR dotlessi
ENCODING 305
SWIDTH 337 0
DWIDTH 3 0
BBX 3 7 0 0
BITMAP
68
68
68
68
68
68
68
ENDCHAR
STARTCHAR IJ
ENCODING 306
SWIDTH 774 0
DWIDTH 8 0
BBX 8 9 0 -1
BITMAP
6865
6865
6865
6865
6865
6859
6998
6864
0040
ENDCHAR
STARTCHAR ij
ENCODING 307
SWIDTH 729 0
DWIDTH 7 0
BBX 7 8 0 -1
BITMAP
6868
6868
6868
6868
6868
6864
6894
0190
ENDCHAR
STARTCHAR Jcircumflex
ENCODING 308
SWIDTH 434 0
DWIDTH 4 0
BBX 4 12 0 -1
BITMAP
09
15
01
1A
1A
1A
1A
1A
1A
55
64
50
ENDCHAR
STARTCHAR jcircumflex
ENCODING 309
SWIDTH 393 0
DWIDTH 4 0
BBX 4 11 0 -1
BITMAP
18
15
10
25
25
25
25
25
65
68
50
ENDCHAR
STARTCHAR Kcommaaccent
ENCODING 310
SWIDTH 815 0
DWIDTH 8 0
BBX 8 12 0 -4
BITMAP
6825
6858
6894
6960
6960
6894
6859
6829
0040
0180
0180
0140
ENDCHAR
STARTCHAR kcommaaccent
ENCODING 311
SWIDTH 801 0
DWIDTH 8 0
BBX 8 11 0 -4
BITMAP
6865
6868
6954
69A0
6954
6868
6865
0040
0180
0180
0140
ENDCHAR
STARTCHAR kgreenlandic
ENCODING 312
SWIDTH 801 0
DWIDTH 8 0
BBX 8 7 0 0
BITMAP
6865
6868
6954
69A0
6954
6868
6865
ENDCHAR
STARTCHAR Lacute
ENCODING 313
SWIDTH 604 0
DWIDTH 6 0
BBX 6 12 0 0
BITMAP
0010
0190
0540
0000
6800
6800
6800
6800
6800
6800
6950
6A90
ENDCHAR
STARTCHAR lacute
ENCODING 314
SWIDTH 583 0
DWIDTH 6 0
BBX 6 11 0 0
BITMAP
0100
1640
1400
0000
6800
6800
6800
6800
6800
6950
6A90
ENDCHAR
STARTCHAR Lcommaaccent
ENCODING 315
SWIDTH 604 0
DWIDTH 6 0
BBX 6 12 0 -4
BITMAP
6800
6800
6800
6800
6800
6800
6950
6A90
0100
0600
0600
0500
ENDCHAR
STARTCHAR lcommaaccent
ENCODING 316
SWIDTH 583 0
DWIDTH 6 0
BBX 6 11 0 -4
BITMAP
6800
6800
6800
6800
6800
6950
6A90
0000
0A00
0500
0500
ENDCHAR
STARTCHAR Lcaron
ENCODING 317
SWIDTH 856 0
DWIDTH 9 0
BBX 9 9 0 0
BITMAP
000540
680540
680500
680500
680000
680000
680000
695000
6A9000
ENDCHAR
STARTCHAR lcaron
ENCODING 318
SWIDTH 584 0
DWIDTH 6 0
BBX 6 8 0 0
BITMAP
0150
6950
6850
6840
6800
6800
6950
6A90
ENDCHAR
STARTCHAR Ldot
ENCODING 319
SWIDTH 604 0
DWIDTH 6 0
BBX 6 8 0 0
BITMAP
6800
6800
6800
6940
6980
6800
6950
6A90
ENDCHAR
STARTCHAR ldot
ENCODING 320
SWIDTH 582 0
DWIDTH 6 0
BBX 6 7 0 0
BITMAP
6800
6840
6980
6800
6800
6950
6A90
ENDCHAR
STARTCHAR Lslash
ENCODING 321
SWIDTH 604 0
DWIDTH 6 0
BBX 7 8 -1 0
BITMAP
1A00
1A00
1A50
5A50
1A00
1A00
1A54
1AA4
ENDCHAR
STARTCHAR lslash
ENCODING 322
SWIDTH 581 0
DWIDTH 6 0
BBX 7 7 -1 0
BITMAP
1A00
1A50
1A40
5A40
5A00
1A54
1AA4
ENDCHAR
STARTCHAR Nacute
ENCODING 323
SWIDTH 877 0
DWIDTH 9 0
BBX 9 12 0 0
BITMAP
000400
005500
005000
000000
650940
564940
5A9940
695940
696940
68A540
685540
681A40
ENDCHAR
STARTCHAR nacute
ENCODING 324
SWIDTH 787 0
DWIDTH 8 0
BBX 8 11 0 0
BITMAP
0004
0064
0140
0000
6515
5655
5A55
5965
65A5
6555
6469
ENDCHAR
STARTCHAR Ncommaaccent
ENCODING 325
SWIDTH 877 0
DWIDTH 9 0
BBX 9 12 0 -4
BITMAP
650940
564940
5A9940
695940
696940
68A540
685540
681A40
000000
015000
005000
014000
ENDCHAR
STARTCHAR ncommaaccent
ENCODING 326
SWIDTH 787 0
DWIDTH 8 0
BBX 8 11 0 -4
BITMAP
6515
5655
5A55
5965
65A5
6555
6469
0100
0240
0140
0140
ENDCHAR
STARTCHAR Ncaron
ENCODING 327
SWIDTH 877 0
DWIDTH 9 0
BBX 9 11 0 0
BITMAP
015000
015000
014000
650940
564940
5A9940
695940
696940
68A540
685540
681A40
ENDCHAR
STARTCHAR ncaron
ENCODING 328
SWIDTH 787 0
DWIDTH 8 0
BBX 8 10 0 0
BITMAP
0550
0280
0140
6515
5655
5A55
5965
65A5
6555
6469
ENDCHAR
STARTCHAR Eng
ENCODING 330
SWIDTH 874 0
DWIDTH 9 0
BBX 9 11 0 -3
BITMAP
651940
555940
5A9940
665940
696940
689940
685940
681940
001640
001900
006400
ENDCHAR
STARTCHAR eng
ENCODING 331
SWIDTH 691 0
DWIDTH 7 0
BBX 7 10 0 -3
BITMAP
6554
5694
5A94
5994
6694
6594
6494
0054
00A0
0040
ENDCHAR
STARTCHAR Omacron
ENCODING 332
SWIDTH 933 0
DWIDTH 9 0
BBX 9 10 0 -1
BITMAP
015000
055900
299A40
591A40
640580
640580
591A40
199A00
065900
015000
ENDCHAR
STARTCHAR omacron
ENCODING 333
SWIDTH 833 0
DWIDTH 8 0
BBX 8 9 0 -1
BITMAP
0140
1964
2695
5959
6416
5959
2595
1964
0140
ENDCHAR
STARTCHAR Obreve
ENCODING 334
SWIDTH 933 0
DWIDTH 9 0
BBX 9 11 0 -1
BITMAP
016000
015000
055900
299A40
591A40
640580
640580
591A40
199A00
065900
015000
ENDCHAR
STARTCHAR obreve
ENCODING 335
SWIDTH 833 0
DWIDTH 8 0
BBX 8 10 0 -1
BITMAP
0150
0140
1964
2695
5959
6416
5959
2595
1964
0140
ENDCHAR
STARTCHAR Ohungarumlaut
ENCODING 336
SWIDTH 933 0
DWIDTH 9 0
BBX 10 13 0 -1
BITMAP
000040
019590
050500
015000
055900
299A40
591A40
640580
640580
591A40
199A00
065900
015000
ENDCHAR
STARTCHAR ohungarumlaut
ENCODING 337
SWIDTH 833 0
DWIDTH 8 0
BBX 9 12 0 -1
BITMAP
004040
055640
051400
014000
196400
269500
595900
641600
595900
259500
196400
014000
ENDCHAR
STARTCHAR OE
ENCODING 338
SWIDTH 1317 0
DWIDTH 13 0
BBX 13 10 0 -1
BITMAP
01500000
0559AA40
29959540
59158000
6405A800
6405A400
59158000
19999540
0659AA80
01500000
ENDCHAR
STARTCHAR oe
ENCODING 339
SWIDTH 1174 0
DWIDTH 12 0
BBX 12 9 0 -1
BITMAP
014000
1966A9
211654
515654
441654
515654
215654
1966A9
014000
ENDCHAR
STARTCHAR Racute
ENCODING 340
SWIDTH 843 0
DWIDTH 8 0
BBX 8 11 0 0
BITMAP
0190
0500
0000
6AA4
5559
6956
6956
6AA9
6968
6858
6825
ENDCHAR
STARTCHAR Rcommaaccent
ENCODING 342
SWIDTH 843 0
DWIDTH 8 0
BBX 8 12 0 -4
BITMAP
6AA4
5559
6956
6956
6AA9
6968
6858
6825
0040
0180
0180
0140
ENDCHAR
STARTCHAR rcommaaccent
ENCODING 343
SWIDTH 831 0
DWIDTH 8 0
BBX 8 11 0 -4
BITMAP
6AA4
5559
6956
6AA9
6959
69A4
6858
0100
0240
0140
0140
ENDCHAR
STARTCHAR Rcaron
ENCODING 344
SWIDTH 843 0
DWIDTH 8 0
BBX 8 11 0 0
BITMAP
1600
0900
0500
6AA4
5559
6956
6956
6AA9
6968
6858
6825
ENDCHAR
STARTCHAR rcaron
ENCODING 345
SWIDTH 831 0
DWIDTH 8 0
BBX 8 10 0 0
BITMAP
0250
0190
0140
6AA4
5559
6956
6AA9
6959
69A4
6858
ENDCHAR
STARTCHAR Sacute
ENCODING 346
SWIDTH 682 0
DWIDTH 7 0
BBX 7 13 0 -1
BITMAP
0010
0154
0140
0540
2564
5A90
6940
5590
1A54
0594
1654
6590
0500
ENDCHAR
STARTCHAR sacute
ENCODING 347
SWIDTH 683 0
DWIDTH 7 0
BBX 7 11 0 0
BITMAP
0010
0154
0140
0100
1A94
6550
6540
6560
0554
1554
5A90
ENDCHAR
STARTCHAR Scircumflex
ENCODING 348
SWIDTH 682 0
DWIDTH 7 0
BBX 7 12 0 -1
BITMAP
0600
0540
0000
2564
5A90
6940
5590
1A54
0594
1654
6590
0500
ENDCHAR
STARTCHAR scircumflex
ENCODING 349
SWIDTH 683 0
DWIDTH 7 0
BBX 7 10 0 0
BITMAP
0600
0540
0400
1A94
6550
6540
6560
0554
1554
5A90
ENDCHAR
STARTCHAR Scedilla
ENCODING 350
SWIDTH 682 0
DWIDTH 7 0
BBX 7 13 0 -4
BITMAP
0540
2564
5A90
6940
5590
1A54
0594
1654
6590
0600
1A00
1500
0500
ENDCHAR
STARTCHAR scedilla
ENCODING 351
SWIDTH 683 0
DWIDTH 7 0
BBX 7 12 0 -4
BITMAP
0100
1A94
6550
6540
6560
0554
1554
5A90
0500
0A00
1500
0500
ENDCHAR
STARTCHAR Scaron
ENCODING 352
SWIDTH 682 0
DWIDTH 7 0
BBX 7 12 0 -1
BITMAP
0540
0540
0640
2564
5A90
6940
5590
1A54
0594
1654
6590
0500
ENDCHAR
STARTCHAR scaron
ENCODING 353
SWIDTH 683 0
DWIDTH 7 0
BBX 7 10 0 0
BITMAP
0540
0540
0500
1A94
6550
6540
6560
0554
1554
5A90
ENDCHAR
STARTCHAR Tcommaaccent
ENCODING 354
SWIDTH 591 0
DWIDTH 6 0
BBX 6 11 0 -3
BITMAP
6A90
5650
1640
1640
1640
1640
1640
1A40
1900
1400
1500
ENDCHAR
STARTCHAR tcommaaccent
ENCODING 355
SWIDTH 588 0
DWIDTH 6 0
BBX 6 10 0 -3
BITMAP
6A90
5550
1600
1600
1600
1600
1A00
1900
1400
1500
ENDCHAR
STARTCHAR Tcaron
ENCODING 356
SWIDTH 591 0
DWIDTH 6 0
BBX 6 11 0 0
BITMAP
1540
0A00
0500
6A90
5650
1640
1640
1640
1640
1640
1640
ENDCHAR
STARTCHAR tcaron
ENCODING 357
SWIDTH 842 0
DWIDTH 8 0
BBX 8 8 0 0
BITMAP
0005
6A96
5556
1604
1600
1600
1600
1600
ENDCHAR
STARTCHAR Tbar
ENCODING 358
SWIDTH 591 0
DWIDTH 6 0
BBX 6 8 0 0
BITMAP
6A90
5650
1640
4650
5640
1640
1640
1640
ENDCHAR
STARTCHAR tbar
ENCODING 359
SWIDTH 588 0
DWIDTH 6 0
BBX 6 7 0 0
BITMAP
6A90
5550
1600
4610
1600
1640
1600
ENDCHAR
STARTCHAR Utilde
ENCODING 360
SWIDTH 905 0
DWIDTH 9 0
BBX 9 12 0 -1
BITMAP
055000
155500
155400
680A40
680A40
680A40
680A40
680A40
591940
299A00
055400
015000
ENDCHAR
STARTCHAR utilde
ENCODING 361
SWIDTH 795 0
DWIDTH 8 0
BBX 8 11 0 -1
BITMAP
0544
2554
1150
6825
6825
6825
6825
5965
1968
1964
0140
ENDCHAR
STARTCHAR Umacron
ENCODING 362
SWIDTH 905 0
DWIDTH 9 0
BBX 9 9 0 -1
BITMAP
680A40
680A40
680A40
680A40
680A40
591940
299A00
055400
015000
ENDCHAR
STARTCHAR umacron
ENCODING 363
SWIDTH 795 0
DWIDTH 8 0
BBX 8 8 0 -1
BITMAP
6825
6825
6825
6825
5965
1968
1964
0140
ENDCHAR
STARTCHAR Ubreve
ENCODING 364
SWIDTH 905 0
DWIDTH 9 0
BBX 9 11 0 -1
BITMAP
015000
000000
680A40
680A40
680A40
680A40
680A40
591940
299A00
055400
015000
ENDCHAR
STARTCHAR ubreve
ENCODING 365
SWIDTH 795 0
DWIDTH 8 0
BBX 8 10 0 -1
BITMAP
0550
0000
6825
6825
6825
6825
5965
1968
1964
0140
ENDCHAR
STARTCHAR Uring
ENCODING 366
SWIDTH 905 0
DWIDTH 9 0
BBX 9 13 0 -1
BITMAP
004000
015000
015000
004000
680A40
680A40
680A40
680A40
680A40
591940
299A00
055400
015000
ENDCHAR
STARTCHAR uring
ENCODING 367
SWIDTH 795 0
DWIDTH 8 0
BBX 8 12 0 -1
BITMAP
0140
0540
0540
0000
6825
6825
6825
6825
5965
1968
1964
0140
ENDCHAR
STARTCHAR Uhungarumlaut
ENCODING 368
SWIDTH 905 0
DWIDTH 9 0
BBX 10 13 0 -1
BITMAP
004040
059550
050500
000000
680A40
680A40
680A40
680A40
680A40
591940
299A00
055400
015000
ENDCHAR
STARTCHAR uhungarumlaut
ENCODING 369
SWIDTH 795 0
DWIDTH 8 0
BBX 9 12 0 -1
BITMAP
004000
065640
151400
000000
682500
682500
682500
682500
596500
196800
196400
014000
ENDCHAR
STARTCHAR Uogonek
ENCODING 370
SWIDTH 905 0
DWIDTH 9 0
BBX 9 11 0 -3
BITMAP
680A40
680A40
680A40
680A40
680A40
591940
299A00
069400
029000
024000
014000
ENDCHAR
STARTCHAR uogonek
ENCODING 371
SWIDTH 794 0
DWIDTH 8 0
BBX 8 10 0 -3
BITMAP
6825
6825
6825
6825
5965
1968
1A64
0640
0500
0500
ENDCHAR
STARTCHAR Ycircumflex
ENCODING 374
SWIDTH 789 0
DWIDTH 8 0
BBX 8 11 0 0
BITMAP
0240
0580
0140
5825
2558
1994
0960
0650
0550
0590
0590
ENDCHAR
STARTCHAR ycircumflex
ENCODING 375
SWIDTH 733 0
DWIDTH 7 0
BBX 7 10 0 0
BITMAP
0240
0540
0540
6858
2594
1560
0650
0580
0580
0580
ENDCHAR
STARTCHAR Ydieresis
ENCODING 376
SWIDTH 789 0
DWIDTH 8 0
BBX 8 11 0 0
BITMAP
0410
1554
0000
5825
2558
1994
0960
0650
0550
0590
0590
ENDCHAR
STARTCHAR Zacute
ENCODING 377
SWIDTH 854 0
DWIDTH 9 0
BBX 8 12 0 0
BITMAP
0004
0054
0050
0000
6AA6
5559
556A
0655
1A90
5655
6555
6AAA
ENDCHAR
STARTCHAR zacute
ENCODING 378
SWIDTH 714 0
DWIDTH 7 0
BBX 7 11 0 0
BITMAP
0010
0164
0140
0000
6AA4
5564
0550
0A80
1540
6954
6AA8
ENDCHAR
STARTCHAR Zdotaccent
ENCODING 379
SWIDTH 854 0
DWIDTH 9 0
BBX 8 11 0 0
BITMAP
0180
0140
0000
6AA6
5559
556A
0655
1A90
5655
6555
6AAA
ENDCHAR
STARTCHAR zdotaccent
ENCODING 380
SWIDTH 714 0
DWIDTH 7 0
BBX 7 10 0 0
BITMAP
0240
0140
0000
6AA4
5564
0550
0A80
1540
6954
6AA8
ENDCHAR
STARTCHAR Zcaron
ENCODING 381
SWIDTH 854 0
DWIDTH 9 0
BBX 8 11 0 0
BITMAP
0250
0190
0140
6AA6
5559
556A
0655
1A90
5655
6555
6AAA
ENDCHAR
STARTCHAR zcaron
ENCODING 382
SWIDTH 714 0
DWIDTH 7 0
BBX 7 10 0 0
BITMAP
0540
0540
0100
6AA4
5564
0550
0A80
1540
6954
6AA8
ENDCHAR
STARTCHAR florin
ENCODING 402
SWIDTH 388 0
DWIDTH 4 0
BBX 4 10 0 -1
BITMAP
05
15
24
65
65
24
24
24
64
50
ENDCHAR
STARTCHAR uni01C4
ENCODING 452
SWIDTH 1740 0
DWIDTH 17 0
BBX 17 11 0 0
BITMAP
0000015400
0000006000
0000005000
6AA41AA980
5559155680
695A555680
680941A500
680945A400
6956595540
5569195540
6AA42AAA80
ENDCHAR
STARTCHAR uni01C5
ENCODING 453
SWIDTH 1601 0
DWIDTH 16 0
BBX 16 10 0 0
BITMAP
00000150
00000150
6AA40040
55591AA5
695A5558
68094154
68094290
69564590
55691555
6AA41AA9
ENDCHAR
STARTCHAR Scommaaccent
ENCODING 536
SWIDTH 682 0
DWIDTH 7 0
BBX 7 13 0 -4
BITMAP
0540
2564
5A90
6940
5590
1A54
0594
1654
6590
0540
0540
0240
0500
ENDCHAR
STARTCHAR scommaaccent
ENCODING 537
SWIDTH 683 0
DWIDTH 7 0
BBX 7 12 0 -4
BITMAP
0100
1A94
6550
6540
6560
0554
1554
5A90
0500
0540
0240
0500
ENDCHAR
STARTCHAR uni021A
ENCODING 538
SWIDTH 591 0
DWIDTH 6 0
BBX 6 12 0 -4
BITMAP
6A90
5650
1640
1640
1640
1640
1640
1640
0400
0900
0500
0500
ENDCHAR
STARTCHAR uni021B
ENCODING 539
SWIDTH 588 0
DWIDTH 6 0
BBX 6 11 0 -4
BITMAP
6A90
5550
1600
1600
1600
1600
1600
0400
0900
0500
0500
ENDCHAR
STARTCHAR uni0237
ENCODING 567
SWIDTH 393 0
DWIDTH 4 0
BBX 4 8 0 -1
BITMAP
25
25
25
25
25
65
68
50
ENDCHAR
STARTCHAR circumflex
ENCODING 710
SWIDTH 376 0
DWIDTH 4 0
BBX 3 3 0 7
BITMAP
24
58
54
ENDCHAR
STARTCHAR caron
ENCODING 711
SWIDTH 362 0
DWIDTH 4 0
BBX 3 3 0 7
BITMAP
58
24
14
ENDCHAR
STARTCHAR breve
ENCODING 728
SWIDTH 360 0
DWIDTH 4 0
BBX 3 1 0 8
BITMAP
58
ENDCHAR
STARTCHAR dotaccent
ENCODING 729
SWIDTH 255 0
DWIDTH 3 0
BBX 2 2 0 6
BITMAP
60
50
ENDCHAR
STARTCHAR ring
ENCODING 730
SWIDTH 330 0
DWIDTH 3 0
BBX 3 4 0 7
BITMAP
10
58
54
10
ENDCHAR
STARTCHAR ogonek
ENCODING 731
SWIDTH 250 0
DWIDTH 3 0
BBX 2 4 0 -3
BITMAP
10
50
50
50
ENDCHAR
STARTCHAR tilde
ENCODING 732
SWIDTH 665 0
DWIDTH 7 0
BBX 7 3 0 5
BITMAP
1540
5554
0550
ENDCHAR
STARTCHAR hungarumlaut
ENCODING 733
SWIDTH 837 0
DWIDTH 8 0
BBX 7 3 1 7
BITMAP
0400
6564
5140
ENDCHAR
STARTCHAR uni0307
ENCODING 775
SWIDTH 260 0
DWIDTH 3 0
BBX 2 2 0 4
BITMAP
50
60
ENDCHAR
STARTCHAR uni030F
ENCODING 783
SWIDTH 554 0
DWIDTH 6 0
BBX 5 4 0 7
BITMAP
5100
6140
1540
1440
ENDCHAR
STARTCHAR uni0311
ENCODING 785
SWIDTH 375 0
DWIDTH 4 0
BBX 3 1 0 8
BITMAP
64
ENDCHAR
STARTCHAR uni0326
ENCODING 806
SWIDTH 274 0
DWIDTH 3 0
BBX 3 3 0 -4
BITMAP
54
14
50
ENDCHAR
STARTCHAR Omega
ENCODING 937
SWIDTH 92 0
DWIDTH 1 0
BBX 1 1 0 0
BITMAP
00
ENDCHAR
STARTCHAR uni00B5.dup2
ENCODING 956
SWIDTH 802 0
DWIDTH 8 0
BBX 8 8 0 -1
BITMAP
5829
5829
5829
5829
5865
5968
5964
5940
ENDCHAR
STARTCHAR pi
ENCODING 960
SWIDTH 92 0
DWIDTH 1 0
BBX 1 1 0 0
BITMAP
00
ENDCHAR
STARTCHAR endash
ENCODING 8211
SWIDTH 473 0
DWIDTH 5 0
BBX 5 2 0 3
BITMAP
6A40
5500
ENDCHAR
STARTCHAR emdash
ENCODING 8212
SWIDTH 615 0
DWIDTH 6 0
BBX 6 2 0 3
BITMAP
6A90
5550
ENDCHAR
STARTCHAR quoteleft
ENCODING 8216
SWIDTH 254 0
DWIDTH 3 0
BBX 2 3 0 5
BITMAP
60
50
60
ENDCHAR
STARTCHAR quoteright
ENCODING 8217
SWIDTH 251 0
DWIDTH 3 0
BBX 2 3 0 5
BITMAP
60
20
50
ENDCHAR
STARTCHAR quotesinglbase
ENCODING 8218
SWIDTH 252 0
DWIDTH 3 0
BBX 2 4 0 -2
BITMAP
50
60
60
40
ENDCHAR
STARTCHAR quotedblleft
ENCODING 8220
SWIDTH 535 0
DWIDTH 5 0
BBX 5 3 0 5
BITMAP
6180
5140
6180
ENDCHAR
STARTCHAR quotedblright
ENCODING 8221
SWIDTH 532 0
DWIDTH 5 0
BBX 5 3 0 5
BITMAP
6180
2180
5140
ENDCHAR
STARTCHAR quotedblbase
ENCODING 8222
SWIDTH 533 0
DWIDTH 5 0
BBX 5 4 0 -2
BITMAP
5140
6180
6140
4100
ENDCHAR
STARTCHAR dagger
ENCODING 8224
SWIDTH 636 0
DWIDTH 6 0
BBX 6 8 0 0
BITMAP
0940
5990
5990
5990
0940
0940
0940
0940
ENDCHAR
STARTCHAR daggerdbl
ENCODING 8225
SWIDTH 648 0
DWIDTH 6 0
BBX 6 8 0 0
BITMAP
0940
5990
69A0
1950
1950
5990
5990
0940
ENDCHAR
STARTCHAR bullet
ENCODING 8226
SWIDTH 501 0
DWIDTH 5 0
BBX 5 5 0 1
BITMAP
1500
5540
5140
5540
1500
ENDCHAR
STARTCHAR ellipsis
ENCODING 8230
SWIDTH 676 0
DWIDTH 7 0
BBX 7 2 0 0
BITMAP
5550
6664
ENDCHAR
STARTCHAR perthousand
ENCODING 8240
SWIDTH 447 0
DWIDTH 4 0
BBX 4 9 0 -1
BITMAP
06
0A
19
15
18
28
64
54
60
ENDCHAR
STARTCHAR guilsinglleft
ENCODING 8249
SWIDTH 465 0
DWIDTH 5 0
BBX 4 5 0 1
BITMAP
05
66
55
59
01
ENDCHAR
STARTCHAR guilsinglright
ENCODING 8250
SWIDTH 465 0
DWIDTH 5 0
BBX 4 5 0 1
BITMAP
54
66
16
59
50
ENDCHAR
STARTCHAR fraction
ENCODING 8260
SWIDTH 447 0
DWIDTH 4 0
BBX 4 9 0 -1
BITMAP
06
0A
19
15
18
28
64
54
60
ENDCHAR
STARTCHAR uni2074
ENCODING 8308
SWIDTH 528 0
DWIDTH 5 0
BBX 5 6 0 2
BITMAP
1900
1900
6540
6A40
5540
5680
ENDCHAR
STARTCHAR Euro
ENCODING 8364
SWIDTH 781 0
DWIDTH 8 0
BBX 8 10 0 -1
BITMAP
0054
0655
1568
1940
6550
6550
1A44
0964
0655
0054
ENDCHAR
STARTCHAR trademark
ENCODING 8482
SWIDTH 1503 0
DWIDTH 15 0
BBX 15 6 0 2
BITMAP
6A994068
5A568194
090651A4
090665A4
09066564
09061514
ENDCHAR
STARTCHAR partialdiff
ENCODING 8706
SWIDTH 108 0
DWIDTH 1 0
BBX 1 1 0 0
BITMAP
00
ENDCHAR
STARTCHAR uni2206
ENCODING 8710
SWIDTH 108 0
DWIDTH 1 0
BBX 1 1 0 0
BITMAP
00
ENDCHAR
STARTCHAR product
ENCODING 8719
SWIDTH 521 0
DWIDTH 5 0
BBX 5 7 0 0
BITMAP
1900
2600
5940
5640
5940
2900
1600
ENDCHAR
STARTCHAR summation
ENCODING 8721
SWIDTH 108 0
DWIDTH 1 0
BBX 1 1 0 0
BITMAP
00
ENDCHAR
STARTCHAR minus
ENCODING 8722
SWIDTH 555 0
DWIDTH 6 0
BBX 5 3 0 3
BITMAP
1540
5540
5540
ENDCHAR
STARTCHAR radical
ENCODING 8730
SWIDTH 108 0
DWIDTH 1 0
BBX 1 1 0 0
BITMAP
00
ENDCHAR
STARTCHAR infinity
ENCODING 8734
SWIDTH 108 0
DWIDTH 1 0
BBX 1 1 0 0
BITMAP
00
ENDCHAR
STARTCHAR integral
ENCODING 8747
SWIDTH 362 0
DWIDTH 4 0
BBX 3 10 0 -1
BITMAP
04
14
24
24
24
24
24
24
94
50
ENDCHAR
STARTCHAR approxequal
ENCODING 8776
SWIDTH 665 0
DWIDTH 7 0
BBX 7 6 0 2
BITMAP
1540
5554
0550
1540
5554
0550
ENDCHAR
STARTCHAR notequal
ENCODING 8800
SWIDTH 473 0
DWIDTH 5 0
BBX 5 9 0 -1
BITMAP
0600
0A00
7F40
6E00
2900
7E40
7900
5400
6000
ENDCHAR
STARTCHAR lessequal
ENCODING 8804
SWIDTH 108 0
DWIDTH 1 0
BBX 1 1 0 0
BITMAP
00
ENDCHAR
STARTCHAR greaterequal
ENCODING 8805
SWIDTH 108 0
DWIDTH 1 0
BBX 1 1 0 0
BITMAP
00
ENDCHAR
STARTCHAR lozenge
ENCODING 9674
SWIDTH 521 0
DWIDTH 5 0
BBX 5 7 0 0
BITMAP
1900
2600
5940
5640
5940
2900
1600
ENDCHAR
STARTCHAR uniF8FF
ENCODING 63743
SWIDTH 108 0
DWIDTH 1 0
BBX 1 1 0 0
BITMAP
00
ENDCHAR
STARTCHAR uniFB01
ENCODING 64257
SWIDTH 962 0
DWIDTH 10 0
BBX 10 7 0 0
BITMAP
6AA590
695590
694590
6A9590
695590
680590
680590
ENDCHAR
STARTCHAR uniFB02
ENCODING 64258
SWIDTH 1208 0
DWIDTH 12 0
BBX 12 7 0 0
BITMAP
6AA590
695590
694590
6A9590
695590
6805A5
6805AA
ENDCHAR
STARTCHAR .notdef
ENCODING -1
SWIDTH 108 0
DWIDTH 1 0
BBX 1 1 0 0
BITMAP
00
ENDCHAR
ENDFONT
